<svg xmlns="http://www.w3.org/2000/svg" x="0px" y="0px"
width="80" height="80"
viewBox="0 0 226 226"
style=" fill:#000000;"><g fill="none" fill-rule="nonzero" stroke="none" stroke-width="none" stroke-linecap="butt" stroke-linejoin="miter" stroke-miterlimit="10" stroke-dasharray="" stroke-dashoffset="0" font-family="none" font-weight="none" font-size="none" text-anchor="none" style="mix-blend-mode: normal"><path d="M0,226v-226h226v226z" fill="none" stroke="none" stroke-width="1"></path><g stroke="none" stroke-width="1"><path d="M174.02,27.12c-1.24816,0 -2.26,1.01184 -2.26,2.26c0,1.24816 1.01184,2.26 2.26,2.26c1.24816,0 2.26,-1.01184 2.26,-2.26c0,-1.24816 -1.01184,-2.26 -2.26,-2.26z" fill="#f1bc19"></path><path d="M113,29.38c-46.18205,0 -83.62,37.43795 -83.62,83.62c0,46.18205 37.43795,83.62 83.62,83.62c46.18205,0 83.62,-37.43795 83.62,-83.62c0,-46.18205 -37.43795,-83.62 -83.62,-83.62z" fill="#e4e4f9"></path><path d="M187.58,24.86c-4.99265,0 -9.04,4.04735 -9.04,9.04c0,4.99265 4.04735,9.04 9.04,9.04c4.99265,0 9.04,-4.04735 9.04,-9.04c0,-4.99265 -4.04735,-9.04 -9.04,-9.04z" fill="#f1bc19"></path><path d="M196.62,49.72c-2.49633,0 -4.52,2.02367 -4.52,4.52c0,2.49633 2.02367,4.52 4.52,4.52c2.49633,0 4.52,-2.02367 4.52,-4.52c0,-2.49633 -2.02367,-4.52 -4.52,-4.52z" fill="#8889b9"></path><path d="M183.06,167.24c-2.49633,0 -4.52,2.02367 -4.52,4.52c0,2.49633 2.02367,4.52 4.52,4.52c2.49633,0 4.52,-2.02367 4.52,-4.52c0,-2.49633 -2.02367,-4.52 -4.52,-4.52zM33.9,133.34c-4.99265,0 -9.04,4.04735 -9.04,9.04c0,4.99265 4.04735,9.04 9.04,9.04c4.99265,0 9.04,-4.04735 9.04,-9.04c0,-4.99265 -4.04735,-9.04 -9.04,-9.04z" fill="#fbcd59"></path><path d="M56.5,192.1c-2.49633,0 -4.52,2.02367 -4.52,4.52c0,2.49633 2.02367,4.52 4.52,4.52c2.49633,0 4.52,-2.02367 4.52,-4.52c0,-2.49633 -2.02367,-4.52 -4.52,-4.52z" fill="#8889b9"></path><path d="M41.81,110.74c-3.12041,0 -5.65,2.52959 -5.65,5.65c0,3.12041 2.52959,5.65 5.65,5.65c3.12041,0 5.65,-2.52959 5.65,-5.65c0,-3.12041 -2.52959,-5.65 -5.65,-5.65zM179.67,72.32c-1.87225,0 -3.39,1.51775 -3.39,3.39c0,1.87225 1.51775,3.39 3.39,3.39c1.87225,0 3.39,-1.51775 3.39,-3.39c0,-1.87225 -1.51775,-3.39 -3.39,-3.39z" fill="#ffffff"></path><path d="M113,57.856c-30.33037,0 -54.918,24.58763 -54.918,54.918c0,30.33037 24.58763,54.918 54.918,54.918c30.33037,0 54.918,-24.58763 54.918,-54.918c0,-30.33037 -24.58763,-54.918 -54.918,-54.918z" fill="#fbb03b"></path><path d="M113,169.048c-31.188,0 -56.5,-25.312 -56.5,-56.5c0,-31.188 25.312,-56.5 56.5,-56.5c31.188,0 56.5,25.312 56.5,56.5c0,31.188 -25.312,56.5 -56.5,56.5zM113,59.438c-29.38,0 -53.11,23.956 -53.11,53.11c0,29.154 23.73,53.336 53.11,53.336c29.38,0 53.11,-23.956 53.11,-53.11c0,-29.154 -23.73,-53.336 -53.11,-53.336z" fill="#472b29"></path><path d="M112.774,66.896c-25.46254,0 -46.104,20.64146 -46.104,46.104c0,25.46254 20.64146,46.104 46.104,46.104c25.46254,0 46.104,-20.64146 46.104,-46.104c0,-25.46254 -20.64146,-46.104 -46.104,-46.104z" fill="#e0fcf8"></path><path d="M156.844,100.796c-0.452,0 -0.904,-0.226 -1.13,-0.904c-0.226,-0.678 -0.452,-1.356 -0.678,-2.034c-0.904,-2.486 -2.034,-4.972 -3.39,-7.232c-0.226,-0.452 -0.226,-1.13 0.452,-1.582c0.452,-0.226 1.13,-0.226 1.582,0.452c1.356,2.486 2.486,4.972 3.39,7.458c0.226,0.678 0.452,1.356 0.678,2.034c0.226,0.678 -0.226,1.13 -0.678,1.356c0,0.452 0,0.452 -0.226,0.452z" fill="#472b29"></path><path d="M139.668,138.538c-0.452,-2.938 -1.808,-4.746 -4.52,-5.424c-0.226,0 -0.226,0 -0.452,-0.226c-0.226,0 -0.452,-0.226 -0.904,-0.226c-1.808,-0.678 -11.752,-4.52 -11.752,-4.52c-0.904,-0.226 -1.356,-0.904 -1.582,-1.582c-0.452,-1.13 -0.226,-4.068 -0.226,-4.068c0,0 -4.294,1.356 -6.78,2.034c-2.486,0.226 -8.136,-3.164 -8.136,-3.164c0,0 -0.226,4.068 -0.226,4.972c-0.226,0.678 -0.904,1.356 -1.808,1.582l-9.718,3.616c-1.13,0.226 -2.034,0.678 -2.938,1.13c-2.486,1.582 -3.616,3.842 -4.294,5.65c0,0 -0.678,4.52 -0.678,4.746c0,0.678 -0.226,1.356 -0.226,2.034c10.622,7.232 18.984,9.266 33.674,8.588c6.554,-0.226 16.498,-3.616 21.696,-6.102c-0.678,-5.65 -1.13,-9.04 -1.13,-9.04z" fill="#fabf82"></path><path d="M97.632,105.768c-0.226,-0.452 -5.424,-11.752 -1.356,-19.662c1.582,-3.164 4.52,-5.424 8.814,-6.328c2.486,-1.582 5.198,-2.486 8.136,-2.486c2.486,0 4.746,0.678 7.006,1.808c1.13,0.678 2.034,1.13 2.712,1.582c2.486,1.582 3.164,1.808 4.52,1.808c0.226,0 0.226,0 0.452,0c0.452,0 0.678,0 0.904,0c1.808,0 2.034,1.13 2.034,1.582c0.226,1.582 -0.226,2.938 -0.678,4.068c-0.452,0.904 -0.678,1.582 -0.452,2.26c2.486,8.362 -1.356,15.368 -1.582,15.594l-2.034,3.616v-4.068c0,0 0,-5.876 -1.356,-9.944c-1.808,0.904 -4.068,1.356 -6.554,1.356c-4.52,0 -9.266,-1.582 -14.238,-4.52c-3.164,2.938 -3.842,10.17 -3.842,12.882v5.198z" fill="#be7841"></path><path d="M113,78.422c2.034,0 4.294,0.452 6.328,1.808c4.746,2.712 5.65,3.616 7.91,3.616c0.226,0 0.452,0 0.452,0c0.226,0 0.452,0 0.678,0c0.452,0 0.904,0 0.904,0.678c0.226,2.486 -1.808,4.52 -1.13,6.328c2.486,8.136 -1.582,14.69 -1.582,14.69c0,0 0,-7.232 -1.808,-11.526c-2.034,1.356 -4.294,2.034 -7.232,2.034c-4.294,0 -9.04,-1.582 -14.238,-4.746c-4.972,3.39 -4.972,14.464 -4.972,14.464c0,0 -9.492,-21.018 6.78,-24.408c2.486,-2.034 5.198,-2.938 7.91,-2.938M113,76.162v0c-2.938,0 -6.102,0.904 -8.588,2.712c-4.294,1.13 -7.458,3.39 -9.266,7.006c-4.068,8.362 1.13,20.114 1.356,20.566l4.294,9.492v-10.396c0,-2.26 0.452,-8.588 2.938,-11.526c4.746,2.712 9.492,4.294 14.012,4.294c2.034,0 4.068,-0.452 5.876,-1.13c0.678,2.938 0.904,6.78 0.904,8.362v8.362l4.294,-7.232c0.226,-0.226 4.294,-7.458 1.808,-16.498c0,-0.226 0.226,-0.904 0.452,-1.582c0.452,-1.13 1.13,-2.712 0.904,-4.52c-0.226,-1.356 -1.13,-2.712 -3.164,-2.712c-0.226,0 -0.452,0 -0.678,0h-0.226c-0.226,0 -0.226,0 -0.452,0c-0.904,0 -1.356,-0.226 -3.842,-1.582c-0.678,-0.452 -1.808,-0.904 -2.938,-1.582c-2.486,-1.356 -4.972,-2.034 -7.684,-2.034v0z" fill="#472b29"></path><path d="M112.774,159.104c10.396,0 19.888,-3.39 27.346,-9.04c-0.226,-5.424 -0.678,-11.526 -0.678,-11.526c-0.452,-2.938 -1.808,-4.746 -4.52,-5.424c-0.226,0 -0.226,0 -0.452,-0.226c-0.226,0 -0.452,-0.226 -0.904,-0.226c-1.13,-0.452 -5.424,-2.034 -8.362,-3.164h-0.226c-3.39,1.808 -8.362,4.294 -12.882,4.294c-4.52,0 -9.04,-2.486 -12.882,-4.294h-0.452l-6.102,2.26c-1.13,0.226 -2.034,0.678 -2.938,1.13c-2.486,1.582 -3.616,3.842 -4.294,5.65c0,0 -0.678,4.52 -0.678,4.746c0,0.452 0,4.52 -0.226,6.78c8.362,5.65 18.08,9.04 28.25,9.04z" fill="#88cdd7"></path><path d="M94.468,155.036c-0.452,0 -0.678,-0.226 -0.678,-0.678v-5.198c0,-0.452 0.226,-0.678 0.678,-0.678c0.452,0 0.678,0.226 0.678,0.678v5.424c0,0.226 -0.226,0.452 -0.678,0.452zM130.402,156.166c-0.452,0 -0.678,-0.226 -0.678,-0.678v-6.328c0,-0.452 0.226,-0.678 0.678,-0.678c0.452,0 0.678,0.226 0.678,0.678v6.328c0,0.226 -0.452,0.678 -0.678,0.678z" fill="#00a5a5"></path><path d="M129.272,102.378c-0.226,0 -0.226,0 -0.452,0c-1.356,0 -1.13,0.452 -1.13,-0.452c0,-1.356 -0.678,-7.232 -0.678,-7.458c0,-6.102 -6.328,-11.074 -14.238,-11.3v0c0,0 0,0 -0.226,0c0,0 0,0 -0.226,0v0c-7.91,0.226 -14.238,5.198 -14.238,11.3c0,0.226 -0.226,6.102 0,7.684c0,0.904 -0.226,0.226 -1.582,0.452c-0.226,0 -0.226,0 -0.452,0c-1.356,0 -2.712,0.904 -2.938,2.26c0.226,0 0.904,4.972 1.808,7.006c0.678,1.13 1.582,1.356 2.486,2.034c0.452,0.452 0.678,0.904 0.678,1.356c0.452,2.26 2.034,4.068 3.616,5.65c0.904,0.678 6.102,6.554 10.622,6.102c4.52,-0.226 9.944,-5.424 10.622,-6.102c1.582,-1.582 3.164,-3.39 3.616,-5.65c0.226,-0.678 0.226,-1.13 0.678,-1.356c0.904,-0.678 1.808,-0.904 2.486,-2.034c1.13,-2.034 1.808,-7.006 1.808,-7.006c0.226,-1.582 -0.904,-2.486 -2.26,-2.486z" fill="#fddbbc"></path><path d="M112.774,111.87c0.904,0 1.808,-0.452 2.486,-1.13v-0.226v0h-0.226c-0.452,0.452 -1.356,0.904 -2.26,0.904c-0.904,0 -1.582,-0.226 -2.26,-0.904c0,0 0,0 -0.226,0v0v0.226c0.678,0.904 1.582,1.13 2.486,1.13zM106.22,101.022c-0.678,0 -1.13,0.452 -1.356,0.904h0.226c0.452,0 0.904,0.452 0.904,0.904c0,0.452 -0.452,1.13 -1.13,1.13c-0.226,0 -0.226,0 -0.452,-0.226c0.226,0.904 0.904,1.582 1.582,1.582c0.904,0 1.808,-0.904 1.808,-2.26c0,-1.13 -0.678,-2.034 -1.582,-2.034zM119.102,101.022c-0.452,0 -0.904,0.226 -1.356,0.678h0.226c0.452,0 0.904,0.452 0.904,0.904c0,0.452 -0.452,0.904 -0.904,0.904c-0.226,0 -0.678,-0.226 -0.678,-0.452c0,1.13 0.678,2.034 1.808,2.034c0.904,0 1.808,-0.904 1.808,-2.26c0,-0.904 -0.678,-1.808 -1.808,-1.808zM120.006,114.582v-0.226v0h-0.226c-1.582,1.13 -4.068,2.034 -7.006,2.034c-2.938,0 -5.424,-0.678 -7.006,-2.034v0c0,0 0,0 -0.226,0v0.226c1.808,1.356 4.52,2.26 7.232,2.26c2.712,0 5.424,-0.904 7.232,-2.26zM114.582,121.588c0,0 0.226,0 0,0c0.226,-0.226 0,-0.452 0,-0.452h-3.39c0,0 -0.226,0 -0.226,0.226c0,0.226 0,0.226 0.226,0.226z" fill="#512c2b"></path><path d="M129.498,108.932l-1.356,-0.226l0.226,-2.034l-0.904,0.452l-0.452,-1.356l2.034,-0.904c0.226,0 0.452,0 0.678,0c0.226,0.226 0.226,0.452 0.226,0.678z" fill="#895d3d"></path><g fill="#895d3d"><path d="M96.05,108.48l-0.452,-3.164c0,-0.226 0,-0.452 0.226,-0.678c0.226,-0.226 0.452,-0.226 0.678,0l2.034,0.904l-0.452,1.356l-0.904,-0.452l0.226,2.034z"></path></g><g fill="#472b29"><path d="M98.084,114.808v0c-0.226,0 -0.452,-0.226 -0.452,-0.452l0.226,-11.752c0,-0.226 0.226,-0.452 0.452,-0.452v0c0.226,0 0.452,0.226 0.452,0.452l-0.226,11.752c0,0.226 0,0.452 -0.452,0.452z"></path></g><g fill="#472b29"><path d="M127.238,114.808c-0.226,0 -0.452,-0.226 -0.452,-0.452l-0.226,-11.752c0,-0.226 0.226,-0.452 0.452,-0.452v0c0.226,0 0.452,0.226 0.452,0.452l0.226,11.752c0,0.226 -0.226,0.452 -0.452,0.452z"></path></g><g fill="#472b29"><path d="M112.774,127.238c-2.938,0 -7.91,-3.616 -8.136,-3.842c-0.226,-0.226 -0.226,-0.452 -0.226,-0.678c0.226,-0.226 0.452,-0.226 0.678,-0.226c1.356,1.13 5.65,3.842 7.684,3.616c2.486,-0.226 6.78,-3.164 6.78,-3.164c0.226,-0.226 0.678,-0.226 0.678,0.226c0.226,0.226 0.226,0.678 -0.226,0.678c-0.226,0.226 -4.52,3.164 -7.232,3.39c0.226,0 0.226,0 0,0z"></path></g><g fill="#472b29"><path d="M140.346,150.968c-0.678,0 -1.13,-0.452 -1.13,-1.13c-0.226,-5.65 -0.678,-11.074 -0.678,-11.074c-0.452,-2.486 -1.582,-3.842 -3.842,-4.52c-0.226,0 -0.226,0 -0.452,-0.226c-0.226,0 -0.452,-0.226 -0.904,-0.226c-1.808,-0.678 -11.752,-4.52 -11.752,-4.52c-0.904,-0.226 -1.808,-0.904 -2.26,-2.034c-0.226,-0.678 -0.452,-2.034 -0.452,-3.616c0,-0.452 0.226,-0.678 0.452,-0.904c1.582,-1.13 2.938,-2.26 3.164,-2.486c1.808,-1.808 2.938,-3.39 3.39,-5.198c0.226,-0.678 0.452,-1.356 1.13,-2.034c0.452,-0.226 0.678,-0.452 1.13,-0.678c0.678,-0.226 0.904,-0.452 1.13,-0.904c0.904,-1.808 1.808,-5.198 1.808,-6.554c-0.226,-0.678 -0.904,-1.13 -1.808,-1.13c-0.226,0 -0.226,0 -0.452,0h-0.226c-0.904,0 -1.356,0 -1.808,-0.452c-0.452,-0.452 -0.452,-0.904 -0.226,-1.356c0,-1.13 -0.226,-4.52 -0.452,-6.102c0,-0.678 -0.226,-1.13 -0.226,-1.13c0,-5.424 -5.876,-9.944 -13.108,-10.396c0,0 0,0 -0.226,0c0,0 0,0 -0.226,0c-7.458,0.226 -13.108,4.746 -13.108,10.396v0.678c0,1.582 -0.226,5.65 0,6.78c0,0.226 0,0.904 -0.452,1.356c-0.452,0.452 -1.13,0.452 -1.356,0.226c-0.226,0 -0.452,0 -0.904,0c-0.226,0 -0.226,0 -0.452,0c-0.904,0 -1.582,0.452 -1.808,1.13c0,1.356 0.904,4.746 1.808,6.554c0.226,0.452 0.452,0.678 1.13,0.904c0.226,0.226 0.678,0.452 1.13,0.678c0.904,0.678 1.13,1.356 1.13,2.034c0.452,1.582 1.356,3.39 3.39,5.198c0.226,0.226 1.356,1.13 2.938,2.26c0.226,0.226 0.452,0.678 0.452,0.904c-0.226,2.712 -0.226,3.164 -0.226,3.39c-0.226,1.356 -1.582,2.034 -2.486,2.486l-9.492,3.39c-1.13,0.226 -2.034,0.678 -2.712,1.13c-2.26,1.356 -3.164,2.26 -3.842,4.972c-0.678,2.26 -0.678,7.006 -0.678,9.266c0,0.678 0,1.13 0,1.13c0,0.678 -0.678,1.13 -1.13,1.13c-0.678,0 -1.13,-0.678 -1.13,-1.13c0,-0.226 0,-0.452 0,-1.13c0,-2.26 0.226,-7.232 0.904,-9.718c0.904,-3.39 2.26,-4.746 4.746,-6.328c0.904,-0.678 2.034,-1.13 3.39,-1.356l9.492,-3.39c0.678,-0.226 0.904,-0.452 1.13,-0.678c0,-0.226 0,-0.678 0.226,-2.486c-1.13,-0.904 -2.26,-1.808 -2.712,-2.034c-2.26,-2.034 -3.39,-4.068 -3.842,-6.102c-0.226,-0.678 -0.226,-0.678 -0.452,-0.904c-0.226,-0.226 -0.452,-0.452 -0.678,-0.452c-0.678,-0.452 -1.356,-0.904 -2.034,-1.808c-1.13,-2.26 -2.034,-6.328 -2.034,-7.684v-0.226c0.452,-1.582 2.034,-2.938 3.842,-3.164c0.226,0 0.452,0 0.678,0c0.226,0 0.226,0 0.452,0c0,-1.582 0,-4.068 0,-6.102v-0.678c0,-6.78 6.554,-12.204 15.142,-12.43c0.226,0 0.452,0 0.678,0v0c8.588,0.226 15.368,5.876 15.368,12.656c0,0 0,0.452 0,0.904c0.226,2.26 0.452,4.746 0.452,5.876c0.226,0 0.452,0 0.678,0c1.808,0.226 3.616,1.356 3.842,3.164v0.226c0,1.582 -0.904,5.424 -2.034,7.684c-0.452,1.13 -1.356,1.582 -2.034,1.808c-0.226,0.226 -0.452,0.226 -0.678,0.452c-0.226,0.226 -0.226,0.226 -0.452,0.678c-0.452,2.034 -1.808,4.068 -4.068,6.102c-0.226,0.226 -1.356,1.356 -2.938,2.26c0,1.13 0.226,1.808 0.226,2.034c0.226,0.452 0.452,0.678 0.904,0.904c0.452,0.226 10.17,3.842 11.978,4.52c0.226,0.226 0.678,0.226 0.904,0.226c0,0 0.226,0 0.452,0.226c3.164,0.904 4.746,2.938 5.424,6.328c0,0.226 0.452,5.65 0.678,11.3c-0.678,0.678 -1.13,1.13 -1.808,1.13z"></path></g><g fill="#be7841"><path d="M129.498,84.298c0,-0.678 -0.904,-0.678 -1.808,-0.678c-2.486,0.226 -3.164,-0.678 -8.362,-3.616c-5.198,-2.938 -10.396,-1.808 -14.012,0.678c-16.272,3.616 -6.78,24.408 -6.78,24.408c0,0 0,-11.074 4.972,-14.464c8.362,5.424 16.498,6.102 21.47,2.938c1.808,4.068 1.808,11.526 1.808,11.526c0,0 3.842,-6.554 1.582,-14.69c-0.678,-1.582 1.582,-3.616 1.13,-6.102z"></path></g><g fill="#472b29"><path d="M127.69,105.316h-1.13c0,0 0,-6.554 -1.582,-10.622c-5.424,3.164 -13.56,2.034 -21.47,-2.938c-4.52,3.39 -4.52,13.56 -4.52,13.786h-1.13c0,-0.452 0,-11.3 5.424,-14.916c0.226,-0.226 0.452,-0.226 0.678,0c7.91,4.972 16.046,6.102 21.244,2.938c0.226,0 0.226,0 0.452,0c0.226,0 0.226,0.226 0.452,0.226c1.582,4.068 1.582,11.3 1.582,11.526z"></path></g><g fill="#472b29"><path d="M113,160.008c-25.99,0 -47.234,-21.018 -47.234,-47.008c0,-25.99 21.244,-47.008 47.234,-47.008c13.56,0 26.442,5.876 35.256,15.82c0.678,0.678 1.356,1.582 2.034,2.26c0.452,0.452 0.226,1.13 -0.226,1.582c-0.452,0.452 -1.13,0.226 -1.582,-0.226c-0.678,-0.678 -1.13,-1.582 -1.808,-2.26c-8.588,-9.492 -20.792,-15.142 -33.674,-15.142c-24.86,0 -44.974,20.114 -44.974,44.748c0,24.634 20.114,44.748 44.974,44.748c24.86,0 44.974,-20.114 44.974,-44.748c0,-2.26 -0.226,-4.52 -0.452,-6.78c0,-0.678 0.226,-1.13 0.904,-1.356c0.678,0 1.13,0.226 1.356,0.904c0.452,2.26 0.452,4.746 0.452,7.006c0,26.216 -21.244,47.46 -47.234,47.46z"></path></g><g fill="#512c2b"><path d="M109.836,97.18l0.678,-1.13c-2.486,-0.678 -5.424,-0.452 -7.684,0.226l0.678,1.13c1.808,-0.678 4.068,-0.678 6.328,-0.226z"></path></g><g fill="#512c2b"><path d="M122.266,97.18l0.678,-1.13c-2.486,-0.678 -5.424,-0.452 -7.684,0.226l0.678,1.13c1.808,-0.678 4.294,-0.678 6.328,-0.226z"></path></g></g><g fill="#cccccc" stroke="none" stroke-width="1"><path d="M126.195,95.94v3.7h-10.97v30.42h-4.48v-30.42h-10.94v-3.7z"></path></g><path d="M89.805,140.06v-54.12h46.39v54.12z" fill="#ff0000" stroke="#50e3c2" stroke-width="3" opacity="0"></path></g></svg>